{"title":"Fandango (1985) Kevin Costner (Widescreen,Stereo,subs) DVDrip","uid":4416178,"size":731578689,"categoryP":"video","categoryS":"movies","magnet":"?xt=urn:btih:1de50e34fece3742779552891f47d8beb59a1eb7&amp;dn=Fandango+%281985%29+Kevin+Costner+%28Widescreen%2CStereo%2Csubs%29+DVDrip&amp;tr=udp%3A%2F%2Ftracker.openbittorrent.com%3A80&amp;tr=udp%3A%2F%2Fopen.demonii.com%3A1337&amp;tr=udp%3A%2F%2Ftracker.coppersurfer.tk%3A6969&amp;tr=udp%3A%2F%2Fexodus.desync.com%3A6969","seeders":8,"leechers":1,"uploader":"Kuthumi","files":-1,"time":1222529034,"description":" &lt;a href=&quot;http://www.imdb.com/title/tt0089126/&quot; rel=&quot;nofollow&quot; target=&quot;_NEW&quot;&gt;http://www.imdb.com/title/tt0089126/&lt;/a&gt;\n\nOptional English subtitle in separate idx/sub files.\n\nOne of Kevin Costner's very first films, I cannot understand why there is no torrent for it anywhere, so I made a rip. Really funny and entertaining: A bunch of friends go on a road trip before they are drafted for the Vietnam war in the early '70s. Gives a good demonstration of how you can drag your dead car into action with a moving freight train, and how you should NOT perform your first parachute jump.\n\nSurprisingly, the DVD has widescreen and stereo. Not bad for a film produced at that time. \n\n2-pass DVDrip Xvid 704x384, AC3.\nBurn tested, runs well in both my standalone DivX players.\n\nFormat/Info                      : Audio Video Interleave\nFile size                        : 697 MiB\nDuration                         : 1h 26mn\nOveral bit rate                  : 1121 Kbps\n\nVideo\nFormat                           : MPEG-4 Visual\nFormat profile                   : Streaming Video@L1\nFormat settings, BVOP            : Yes\nFormat settings, QPel            : No\nFormat settings, GMC             : No warppoints\nFormat settings, Matrix          : Default\nMuxing mode                      : Packet Bitstream\nCodec ID                         : XVID\nCodec ID/Hint                    : XviD\nDuration                         : 1h 26mn\nBit rate                         : 983 Kbps\nWidth                            : 704 pixels\nHeight                           : 384 pixels\nDisplay aspect ratio             : 16/9\nFrame rate                       : 25.000 fps\nResolution                       : 8 bits\nColorimetry                      : 4:2:0\nScan type                        : Progressive\nBits/(Pixel*Frame)               : 0.145\nStream size                      : 612 MiB\nWriting library                  : XviD 1.2.0.dev47 (UTC 2006-11-01)\n\nAudio\nFormat                           : MPEG Audio\nFormat version                   : Version 1\nFormat profile                   : Layer 3\nCodec ID                         : 55\nCodec ID/Hint                    : MP3\nDuration                         : 1h 26mn\nBit rate mode                    : Constant\nBit rate                         : 128 Kbps\nMinimum bit rate                 : 128 Kbps\nChannel(s)                       : 2 channels\nSampling rate                    : 48.0 KHz\nResolution                       : 16 bits\nStream size                      : 79.6 MiB\nWriting library                  : LAME3.97 \nEncoding settings                : CBR\n\nSource: PAL rental (note that PAL/NTSC will give no problems for avi files)\n","torrent":{"xt":"urn:btih:1de50e34fece3742779552891f47d8beb59a1eb7","amp;dn":"Fandango+%281985%29+Kevin+Costner+%28Widescreen%2CStereo%2Csubs%29+DVDrip","amp;tr":["udp%3A%2F%2Ftracker.openbittorrent.com%3A80","udp%3A%2F%2Fopen.demonii.com%3A1337","udp%3A%2F%2Ftracker.coppersurfer.tk%3A6969","udp%3A%2F%2Fexodus.desync.com%3A6969"],"infoHash":"1de50e34fece3742779552891f47d8beb59a1eb7","infoHashBuffer":{"type":"Buffer","data":[29,229,14,52,254,206,55,66,119,149,82,137,31,71,216,190,181,154,30,183]},"announce":[],"urlList":[]}}